<svg version="1.2" baseProfile="tiny-ps" xmlns="http://www.w3.org/2000/svg" viewBox="0 0 1737 1220" width="1737" height="1220">
	<title>Background</title>
	<style>
		tspan { white-space:pre }
		.shp0 { fill: #ea2f21 } 
		.shp1 { fill: #0d6099 } 
	</style>
	<g id="Background">
		<path id="Path 1" class="shp0" d="M861.5 1.45C859.3 2.26 856.37 4.17 854.99 5.71C853.61 7.24 846.9 18.17 840.09 30C833.27 41.82 803.53 93.35 773.99 144.5C744.46 195.65 696.52 278.67 667.47 329C638.42 379.32 614.22 422.3 613.69 424.5C613.04 427.2 613.09 429.64 613.82 432C614.42 433.92 668.17 527.75 733.26 640.5C798.35 753.25 852.34 846.63 853.24 848C854.14 849.38 856.58 851.5 858.68 852.72C861.37 854.27 864.13 854.93 868 854.93C871.86 854.93 874.64 854.27 877.32 852.72C879.42 851.5 882.42 848.47 883.98 846C885.53 843.52 915.37 792 950.27 731.5C985.17 671 1037.88 579.65 1067.41 528.5C1096.93 477.35 1121.58 433.92 1122.18 432C1122.92 429.63 1122.96 427.21 1122.3 424.5C1121.77 422.3 1078.21 345.8 1025.49 254.5C972.78 163.2 919 70.05 906 47.5C886.19 13.16 881.71 6.05 878.42 3.75C876.15 2.16 872.61 0.79 870 0.49C867.28 0.18 863.92 0.56 861.5 1.45ZM13 468.19C11.07 468.75 8.38 470.1 7 471.18C5.63 472.27 3.49 474.81 2.26 476.83C0.65 479.45 0.01 482.07 0 486C-0.01 491.33 0.58 492.53 19.63 525.5C30.44 544.2 69.41 611.7 106.23 675.5C143.05 739.3 174.15 792.57 175.34 793.88C176.53 795.19 179.3 797.09 181.5 798.11C185.34 799.88 192.45 799.96 359.5 799.96C524.41 799.96 533.71 799.86 537.5 798.17C539.7 797.19 542.71 794.83 544.18 792.94C545.66 791.05 547.28 787.7 547.79 785.5C548.29 783.3 548.52 780.15 548.3 778.5C548.08 776.85 509.5 708.9 462.57 627.5C415.65 546.1 375.96 477.73 374.37 475.56C372.79 473.39 369.92 470.69 368 469.56C364.51 467.5 364.13 467.5 190.5 467.33C74.57 467.22 15.33 467.51 13 468.19ZM1370.5 468.55C1368.3 469.35 1365.45 471.02 1364.16 472.25C1362.87 473.49 1360.11 477.42 1358.04 481C1355.97 484.57 1317 552.07 1271.45 631C1225.91 709.92 1188.32 775.85 1187.93 777.5C1187.53 779.15 1187.64 782.52 1188.17 785C1188.7 787.47 1190.34 791.05 1191.82 792.94C1193.29 794.83 1196.3 797.19 1198.5 798.17C1202.29 799.86 1211.59 799.96 1376.5 799.96C1543.55 799.96 1550.66 799.88 1554.5 798.11C1556.7 797.09 1559.47 795.19 1560.66 793.88C1561.85 792.57 1592.95 739.3 1629.77 675.5C1666.59 611.7 1705.56 544.2 1716.37 525.5C1735.42 492.53 1736.01 491.33 1736 486C1735.99 482.07 1735.35 479.45 1733.74 476.83C1732.51 474.81 1730.38 472.27 1729 471.2C1727.63 470.12 1724.7 468.74 1722.5 468.12C1719.63 467.33 1669.92 467.02 1546.5 467.05C1398.34 467.08 1373.95 467.29 1370.5 468.55Z" />
		<path id="Path 2" class="shp1" d="M301.25 920.09C299.46 920.59 296.76 921.89 295.25 922.97C293.74 924.05 291.42 926.87 290.1 929.22C288.15 932.71 287.79 934.51 288.16 939C288.58 944.15 293.54 953.05 365.56 1077.9C407.88 1151.27 443.86 1212.69 445.52 1214.4C447.18 1216.1 450.33 1218.05 452.52 1218.73C455.6 1219.69 491.15 1219.97 610 1219.98C708.61 1219.98 764.84 1219.63 767.25 1218.99C769.31 1218.45 772.6 1216.54 774.56 1214.75C776.52 1212.96 778.82 1209.7 779.67 1207.5C780.54 1205.24 781.02 1201.76 780.78 1199.5C780.46 1196.54 772.93 1182.64 751.8 1146C736.1 1118.77 701.34 1058.47 674.55 1012C644.34 959.59 624.54 926.27 622.42 924.25C620.54 922.46 617.31 920.55 615.25 920.01C612.83 919.37 556.86 919.04 458 919.1C369.15 919.14 303.13 919.56 301.25 920.09ZM1119.5 920.53C1117.3 921.32 1114.31 923.22 1112.86 924.74C1111.4 926.26 1088.28 965.52 1061.48 1012C1034.68 1058.47 999.9 1118.77 984.2 1146C963.07 1182.64 955.54 1196.54 955.22 1199.5C954.98 1201.76 955.46 1205.24 956.33 1207.5C957.18 1209.7 959.48 1212.96 961.44 1214.75C963.4 1216.54 966.69 1218.45 968.75 1218.99C971.16 1219.63 1027.39 1219.98 1126 1219.98C1244.85 1219.97 1280.4 1219.69 1283.48 1218.73C1285.67 1218.05 1288.82 1216.1 1290.48 1214.4C1292.14 1212.69 1328.12 1151.27 1370.44 1077.9C1442.46 953.05 1447.42 944.15 1447.84 939C1448.21 934.51 1447.85 932.71 1445.9 929.22C1444.58 926.87 1442.38 924.11 1441 923.1C1439.63 922.09 1436.7 920.76 1434.5 920.14C1431.61 919.32 1387.89 919.02 1277 919.05C1145.86 919.08 1122.92 919.3 1119.5 920.53Z" />
	</g>
</svg>